<svg width="1200" height="630" viewBox="0 0 1200 630" fill="none" xmlns="http://www.w3.org/2000/svg">
  <rect width="1200" height="630" fill="#10110f"/>
  <path d="M0 128H1200M0 256H1200M0 384H1200M0 512H1200M160 0V630M320 0V630M480 0V630M640 0V630M800 0V630M960 0V630" stroke="#ededdf" stroke-opacity="0.07"/>
  <rect x="88" y="78" width="1024" height="474" rx="18" fill="#0d0e0b" stroke="#ededdf" stroke-opacity="0.22"/>
  <rect x="88" y="78" width="1024" height="58" rx="18" fill="#1b1c16"/>
  <circle cx="124" cy="107" r="8" fill="#d6a85d"/>
  <circle cx="150" cy="107" r="8" fill="#7bc38a"/>
  <circle cx="176" cy="107" r="8" fill="#807c70"/>
  <text x="88" y="222" fill="#f3f1e7" font-family="Arial, Helvetica, sans-serif" font-size="74" font-weight="700" letter-spacing="-4">ShipNode</text>
  <text x="88" y="304" fill="#bab6a6" font-family="Arial, Helvetica, sans-serif" font-size="34">Zero-downtime Node.js deploys over SSH.</text>
  <text x="88" y="404" fill="#f0c87a" font-family="Menlo, Consolas, monospace" font-size="28">$ shipnode init &amp;&amp; shipnode deploy</text>
  <text x="88" y="458" fill="#7bc38a" font-family="Menlo, Consolas, monospace" font-size="25">health  GET /health  200 OK</text>
  <text x="88" y="496" fill="#807c70" font-family="Menlo, Consolas, monospace" font-size="22">PM2 + Caddy + atomic releases + rollback</text>
</svg>
